<svg viewBox="0 0 72 72" fill="none" xmlns="http://www.w3.org/2000/svg">
<path d="M66 36C66 19.4315 52.5685 6 36 6C19.4315 6 6 19.4315 6 36C6 52.5685 19.4315 66 36 66V72C16.1177 72 0 55.8823 0 36C0 16.1177 16.1177 0 36 0C55.8823 0 72 16.1177 72 36C72 55.8823 55.8823 72 36 72V66C52.5685 66 66 52.5685 66 36Z" fill="url(#paint0_linear_1030_287)"/>
<path d="M57 36C57 47.598 47.598 57 36 57C24.402 57 15 47.598 15 36C15 24.402 24.402 15 36 15C47.598 15 57 24.402 57 36Z" fill="url(#paint1_linear_1030_287)"/>
<defs>
<linearGradient id="paint0_linear_1030_287" x1="10.5" y1="10.5" x2="61.5" y2="61.5" gradientUnits="userSpaceOnUse">
<stop stop-color="#6F50FF"/>
<stop offset="0.5" stop-color="white" stop-opacity="0"/>
<stop offset="1" stop-color="#6F50FF"/>
</linearGradient>
<linearGradient id="paint1_linear_1030_287" x1="10.5" y1="10.5" x2="61.5" y2="61.5" gradientUnits="userSpaceOnUse">
<stop stop-color="#6F50FF"/>
<stop offset="0.5" stop-color="white" stop-opacity="0"/>
<stop offset="1" stop-color="#6F50FF"/>
</linearGradient>
</defs>
</svg>
